<svg id="visual" viewBox="0 0 960 540" width="960" height="540" xmlns="http://www.w3.org/2000/svg" xmlns:xlink="http://www.w3.org/1999/xlink" version="1.1"><path d="M0 314L20 317.7C40 321.3 80 328.7 120 326.3C160 324 200 312 240 302.3C280 292.7 320 285.3 360 281.8C400 278.3 440 278.7 480 292.5C520 306.3 560 333.7 600 341.3C640 349 680 337 720 326.2C760 315.3 800 305.7 840 315.8C880 326 920 356 940 371L960 386L960 0L940 0C920 0 880 0 840 0C800 0 760 0 720 0C680 0 640 0 600 0C560 0 520 0 480 0C440 0 400 0 360 0C320 0 280 0 240 0C200 0 160 0 120 0C80 0 40 0 20 0L0 0Z" fill="#fa7268"></path><path d="M0 327L20 311.7C40 296.3 80 265.7 120 259.7C160 253.7 200 272.3 240 269.7C280 267 320 243 360 234.2C400 225.3 440 231.7 480 247.8C520 264 560 290 600 297C640 304 680 292 720 281.5C760 271 800 262 840 251.2C880 240.3 920 227.7 940 221.3L960 215L960 0L940 0C920 0 880 0 840 0C800 0 760 0 720 0C680 0 640 0 600 0C560 0 520 0 480 0C440 0 400 0 360 0C320 0 280 0 240 0C200 0 160 0 120 0C80 0 40 0 20 0L0 0Z" fill="#f36567"></path><path d="M0 188L20 200.3C40 212.7 80 237.3 120 249.2C160 261 200 260 240 245.5C280 231 320 203 360 192C400 181 440 187 480 206.3C520 225.7 560 258.3 600 273.3C640 288.3 680 285.7 720 267.7C760 249.7 800 216.3 840 214.8C880 213.3 920 243.7 940 258.8L960 274L960 0L940 0C920 0 880 0 840 0C800 0 760 0 720 0C680 0 640 0 600 0C560 0 520 0 480 0C440 0 400 0 360 0C320 0 280 0 240 0C200 0 160 0 120 0C80 0 40 0 20 0L0 0Z" fill="#eb5967"></path><path d="M0 235L20 224.7C40 214.3 80 193.7 120 182.8C160 172 200 171 240 172C280 173 320 176 360 188C400 200 440 221 480 231.7C520 242.3 560 242.7 600 237.3C640 232 680 221 720 215.2C760 209.3 800 208.7 840 204.3C880 200 920 192 940 188L960 184L960 0L940 0C920 0 880 0 840 0C800 0 760 0 720 0C680 0 640 0 600 0C560 0 520 0 480 0C440 0 400 0 360 0C320 0 280 0 240 0C200 0 160 0 120 0C80 0 40 0 20 0L0 0Z" fill="#e34c67"></path><path d="M0 191L20 189.8C40 188.7 80 186.3 120 177.8C160 169.3 200 154.7 240 147C280 139.3 320 138.7 360 134C400 129.3 440 120.7 480 128.8C520 137 560 162 600 169.5C640 177 680 167 720 160.8C760 154.7 800 152.3 840 154.5C880 156.7 920 163.3 940 166.7L960 170L960 0L940 0C920 0 880 0 840 0C800 0 760 0 720 0C680 0 640 0 600 0C560 0 520 0 480 0C440 0 400 0 360 0C320 0 280 0 240 0C200 0 160 0 120 0C80 0 40 0 20 0L0 0Z" fill="#da3f67"></path><path d="M0 65L20 70.7C40 76.3 80 87.7 120 100.5C160 113.3 200 127.7 240 128C280 128.3 320 114.7 360 113.7C400 112.7 440 124.3 480 124.5C520 124.7 560 113.3 600 105.3C640 97.3 680 92.7 720 92.2C760 91.7 800 95.3 840 104.2C880 113 920 127 940 134L960 141L960 0L940 0C920 0 880 0 840 0C800 0 760 0 720 0C680 0 640 0 600 0C560 0 520 0 480 0C440 0 400 0 360 0C320 0 280 0 240 0C200 0 160 0 120 0C80 0 40 0 20 0L0 0Z" fill="#d03267"></path><path d="M0 34L20 38.3C40 42.7 80 51.3 120 55.2C160 59 200 58 240 53.3C280 48.7 320 40.3 360 43.5C400 46.7 440 61.3 480 69.3C520 77.3 560 78.7 600 72.7C640 66.7 680 53.3 720 47.8C760 42.3 800 44.7 840 48.7C880 52.7 920 58.3 940 61.2L960 64L960 0L940 0C920 0 880 0 840 0C800 0 760 0 720 0C680 0 640 0 600 0C560 0 520 0 480 0C440 0 400 0 360 0C320 0 280 0 240 0C200 0 160 0 120 0C80 0 40 0 20 0L0 0Z" fill="#c62368"></path></svg>